<svg width="24" height="24" viewBox="0 0 24 24" fill="none" xmlns="http://www.w3.org/2000/svg">
<path fill-rule="evenodd" clip-rule="evenodd" d="M4.70538 3.29607C4.31584 2.90457 3.68426 2.90457 3.29472 3.29607C2.90518 3.68757 2.90518 4.32232 3.29472 4.71383L10.5894 12.0452L3.38482 19.286C2.99528 19.6775 2.99528 20.3123 3.38482 20.7038C3.77436 21.0953 4.40594 21.0953 4.79548 20.7038L12.0001 13.4629L19.2046 20.7038C19.5942 21.0953 20.2257 21.0953 20.6153 20.7038C21.0048 20.3123 21.0048 19.6775 20.6153 19.286L13.4107 12.0452L20.7054 4.71383C21.0949 4.32232 21.0949 3.68757 20.7054 3.29607C20.3158 2.90457 19.6843 2.90457 19.2947 3.29607L12.0001 10.6274L4.70538 3.29607Z" fill="#98A2B3"/>
</svg>
