<svg width="1496" height="448" viewBox="0 0 1496 448" fill="none" xmlns="http://www.w3.org/2000/svg">
<g clip-path="url(#clip0_42_644)">
<path d="M1496 40L1.00136e-05 40" stroke="#D3DAE6" stroke-opacity="0.5" stroke-linecap="round"/>
<path d="M1496 355L1.00136e-05 355" stroke="#D3DAE6" stroke-opacity="0.5" stroke-linecap="round"/>
<path d="M1496 198L1.00136e-05 198" stroke="#D3DAE6" stroke-opacity="0.5" stroke-linecap="round"/>
<path d="M1496 93L1.00136e-05 93" stroke="#D3DAE6" stroke-opacity="0.5" stroke-linecap="round"/>
<path d="M1496 250L1.00136e-05 250" stroke="#D3DAE6" stroke-opacity="0.5" stroke-linecap="round"/>
<path d="M1496 410L1.00136e-05 410" stroke="#D3DAE6" stroke-opacity="0.5" stroke-linecap="round"/>
<path d="M1496 145L1.00136e-05 145" stroke="#D3DAE6" stroke-opacity="0.5" stroke-linecap="round"/>
<path d="M1496 303L1.00136e-05 303" stroke="#D3DAE6" stroke-opacity="0.5" stroke-linecap="round"/>
<path d="M151 1V511" stroke="#D3DAE6" stroke-opacity="0.5" stroke-linecap="round"/>
<path d="M99 0V510" stroke="#D3DAE6" stroke-opacity="0.5" stroke-linecap="round"/>
<path d="M47 0V510" stroke="#D3DAE6" stroke-opacity="0.5" stroke-linecap="round"/>
<path d="M463 1V511" stroke="#D3DAE6" stroke-opacity="0.5" stroke-linecap="round"/>
<path d="M307 1V511" stroke="#D3DAE6" stroke-opacity="0.5" stroke-linecap="round"/>
<path d="M619 1V511" stroke="#D3DAE6" stroke-opacity="0.5" stroke-linecap="round"/>
<path d="M203 1V511" stroke="#D3DAE6" stroke-opacity="0.5" stroke-linecap="round"/>
<path d="M515 1V511" stroke="#D3DAE6" stroke-opacity="0.5" stroke-linecap="round"/>
<path d="M359 1V511" stroke="#D3DAE6" stroke-opacity="0.5" stroke-linecap="round"/>
<path d="M671 1V511" stroke="#D3DAE6" stroke-opacity="0.5" stroke-linecap="round"/>
<path d="M255 1V511" stroke="#D3DAE6" stroke-opacity="0.5" stroke-linecap="round"/>
<path d="M567 1V511" stroke="#D3DAE6" stroke-opacity="0.5" stroke-linecap="round"/>
<path d="M411 1V511" stroke="#D3DAE6" stroke-opacity="0.5" stroke-linecap="round"/>
<path d="M723 1V511" stroke="#D3DAE6" stroke-opacity="0.5" stroke-linecap="round"/>
<path d="M775 1V511" stroke="#D3DAE6" stroke-opacity="0.5" stroke-linecap="round"/>
<path d="M1087 1V511" stroke="#D3DAE6" stroke-opacity="0.5" stroke-linecap="round"/>
<path d="M931 1V511" stroke="#D3DAE6" stroke-opacity="0.5" stroke-linecap="round"/>
<path d="M1243 1V511" stroke="#D3DAE6" stroke-opacity="0.5" stroke-linecap="round"/>
<path d="M827 1V511" stroke="#D3DAE6" stroke-opacity="0.5" stroke-linecap="round"/>
<path d="M1139 1V511" stroke="#D3DAE6" stroke-opacity="0.5" stroke-linecap="round"/>
<path d="M983 1V511" stroke="#D3DAE6" stroke-opacity="0.5" stroke-linecap="round"/>
<path d="M1295 1V511" stroke="#D3DAE6" stroke-opacity="0.5" stroke-linecap="round"/>
<path d="M879 1V511" stroke="#D3DAE6" stroke-opacity="0.5" stroke-linecap="round"/>
<path d="M1191 1V511" stroke="#D3DAE6" stroke-opacity="0.5" stroke-linecap="round"/>
<path d="M1035 1V511" stroke="#D3DAE6" stroke-opacity="0.5" stroke-linecap="round"/>
<path d="M1347 1V511" stroke="#D3DAE6" stroke-opacity="0.5" stroke-linecap="round"/>
<path d="M1399 0V510" stroke="#D3DAE6" stroke-opacity="0.5" stroke-linecap="round"/>
<path d="M1451 1V511" stroke="#D3DAE6" stroke-opacity="0.5" stroke-linecap="round"/>
</g>
<defs>
<clipPath id="clip0_42_644">
<rect width="1496" height="448" fill="white"/>
</clipPath>
</defs>
</svg>
